<svg width="24" height="24" viewBox="0 0 24 24" fill="none" xmlns="http://www.w3.org/2000/svg">
<rect opacity="0.01" width="24" height="24" rx="5" fill="#FF9500"/>
<path fill-rule="evenodd" clip-rule="evenodd" d="M20.5909 6.61353H3.40909C3.18316 6.61353 3 6.79668 3 7.02262V18.0681C3 18.294 3.18316 18.4772 3.40909 18.4772H20.5909C20.8168 18.4772 21 18.294 21 18.0681V7.02262C21 6.79668 20.8168 6.61353 20.5909 6.61353ZM20.1818 7.43171V9.50989H3.81818V7.43171H20.1818ZM3.81818 10.2953V17.659H20.1818V10.2953H3.81818Z" fill="#FF9500"/>
<path d="M20.1818 9.50989V9.60989H20.2818V9.50989H20.1818ZM20.1818 7.43171H20.2818V7.33171H20.1818V7.43171ZM3.81818 9.50989H3.71818V9.60989H3.81818V9.50989ZM3.81818 7.43171V7.33171H3.71818V7.43171H3.81818ZM3.81818 17.659H3.71818V17.759H3.81818V17.659ZM3.81818 10.2953V10.1953H3.71818V10.2953H3.81818ZM20.1818 17.659V17.759H20.2818V17.659H20.1818ZM20.1818 10.2953H20.2818V10.1953H20.1818V10.2953ZM3.40909 6.71353H20.5909V6.51353H3.40909V6.71353ZM3.1 7.02262C3.1 6.85191 3.23838 6.71353 3.40909 6.71353V6.51353C3.12793 6.51353 2.9 6.74145 2.9 7.02262H3.1ZM3.1 18.0681V7.02262H2.9V18.0681H3.1ZM3.40909 18.3772C3.23838 18.3772 3.1 18.2388 3.1 18.0681H2.9C2.9 18.3492 3.12793 18.5772 3.40909 18.5772V18.3772ZM20.5909 18.3772H3.40909V18.5772H20.5909V18.3772ZM20.9 18.0681C20.9 18.2388 20.7616 18.3772 20.5909 18.3772V18.5772C20.8721 18.5772 21.1 18.3492 21.1 18.0681H20.9ZM20.9 7.02262V18.0681H21.1V7.02262H20.9ZM20.5909 6.71353C20.7616 6.71353 20.9 6.85191 20.9 7.02262H21.1C21.1 6.74145 20.8721 6.51353 20.5909 6.51353V6.71353ZM20.2818 9.50989V7.43171H20.0818V9.50989H20.2818ZM3.81818 9.60989H20.1818V9.40989H3.81818V9.60989ZM3.71818 7.43171V9.50989H3.91818V7.43171H3.71818ZM20.1818 7.33171H3.81818V7.53171H20.1818V7.33171ZM3.91818 17.659V10.2953H3.71818V17.659H3.91818ZM20.1818 17.559H3.81818V17.759H20.1818V17.559ZM20.0818 10.2953V17.659H20.2818V10.2953H20.0818ZM3.81818 10.3953H20.1818V10.1953H3.81818V10.3953Z" fill="#FF9500"/>
<path d="M18.1363 14.5908H14.4545C14.2286 14.5908 14.0454 14.774 14.0454 14.9999C14.0454 15.2258 14.2286 15.409 14.4545 15.409H18.1363C18.3623 15.409 18.5454 15.2258 18.5454 14.9999C18.5454 14.774 18.3623 14.5908 18.1363 14.5908Z" fill="#FF9500" stroke="#FF9500" stroke-width="0.2"/>
</svg>
