<svg width="24" height="24" viewBox="0 0 24 24" fill="none" xmlns="http://www.w3.org/2000/svg">
<rect opacity="0.01" width="24" height="24" rx="5" fill="#FF9500"/>
<path fill-rule="evenodd" clip-rule="evenodd" d="M11.7914 19C11.7914 17.8954 10.896 17 9.79143 17C8.68686 17 7.79143 17.8954 7.79143 19C7.79143 20.1046 8.68686 21 9.79143 21C10.896 21 11.7914 20.1046 11.7914 19ZM8.79143 19C8.79143 18.4477 9.23914 18 9.79143 18C10.3437 18 10.7914 18.4477 10.7914 19C10.7914 19.5523 10.3437 20 9.79143 20C9.23914 20 8.79143 19.5523 8.79143 19Z" fill="#FF9500"/>
<path fill-rule="evenodd" clip-rule="evenodd" d="M17.7914 19C17.7914 17.8954 16.896 17 15.7914 17C14.6869 17 13.7914 17.8954 13.7914 19C13.7914 20.1046 14.6869 21 15.7914 21C16.896 21 17.7914 20.1046 17.7914 19ZM14.7914 19C14.7914 18.4477 15.2391 18 15.7914 18C16.3437 18 16.7914 18.4477 16.7914 19C16.7914 19.5523 16.3437 20 15.7914 20C15.2391 20 14.7914 19.5523 14.7914 19Z" fill="#FF9500"/>
<path d="M3 3.5H6.08773L7.883 14.5H17.4805C17.7259 14.5 17.9301 14.6769 17.9724 14.9101L17.9805 15C17.9805 15.2455 17.8036 15.4496 17.5703 15.4919L17.4805 15.5H7.03262L5.238 4.5H3C2.75454 4.5 2.55039 4.32312 2.50806 4.08988L2.5 4C2.5 3.75454 2.67688 3.55039 2.91012 3.50806L3 3.5Z" fill="#FF9500"/>
<path d="M20.6736 5.23624C20.9615 5.23624 21.1835 5.47647 21.1734 5.75319L21.1633 5.8371L19.7882 12.5136C19.7463 12.7169 19.5845 12.87 19.3857 12.9051L19.2985 12.9127H7.13676C6.86062 12.9127 6.63676 12.6889 6.63676 12.4127C6.63676 12.1673 6.81364 11.9631 7.04689 11.9208L7.13676 11.9127L18.89 11.912L20.059 6.23601L5.90364 6.23624C5.65818 6.23624 5.45403 6.05936 5.4117 5.82611L5.40364 5.73624C5.40364 5.49078 5.58052 5.28663 5.81377 5.24429L5.90364 5.23624H20.6736Z" fill="#FF9500"/>
</svg>
