<svg width="24" height="24" viewBox="0 0 24 24" fill="none" xmlns="http://www.w3.org/2000/svg">
<rect opacity="0.01" width="24" height="24" rx="5" fill="#FF9500"/>
<path fill-rule="evenodd" clip-rule="evenodd" d="M17.9501 10.6999C17.9501 13.5199 19.5601 16.4899 20.5601 17.9999C20.82 18.3967 20.8393 18.9047 20.6101 19.3199C20.3816 19.7366 19.9453 19.9968 19.4701 19.9999H14.9201C14.7679 21.5011 13.504 22.6433 11.9951 22.6433C10.4862 22.6433 9.22232 21.5011 9.07009 19.9999H4.49009C4.01721 19.9951 3.58366 19.7357 3.35576 19.3213C3.12786 18.9069 3.14098 18.4019 3.39009 17.9999C4.36009 16.4999 6.00009 13.2299 6.00009 10.4999C5.99459 7.8814 7.79207 5.60349 10.3401 4.99993C9.69712 4.2581 9.62057 3.18103 10.1522 2.35572C10.6838 1.53041 11.6961 1.15471 12.6374 1.43337C13.5787 1.71202 14.2234 2.57823 14.2201 3.55993C14.222 4.09159 14.0259 4.60492 13.6701 4.99993C16.217 5.72008 17.9689 8.05319 17.9501 10.6999ZM13.1189 3.08922C12.9322 2.63585 12.4904 2.33995 12.0001 2.33993C11.6801 2.33727 11.3723 2.46252 11.1451 2.68785C10.9179 2.91318 10.7901 3.21993 10.7901 3.53993C10.786 4.03022 11.0783 4.47449 11.5301 4.66493C11.9819 4.85537 12.504 4.75433 12.8521 4.40907C13.2002 4.06382 13.3056 3.5426 13.1189 3.08922ZM12.0001 21.6599C11.0422 21.6403 10.2328 20.9441 10.0701 19.9999H13.9201C13.781 20.9532 12.9635 21.6601 12.0001 21.6599ZM19.4701 18.9999C19.5808 19.0027 19.6827 18.94 19.7301 18.8399C19.8063 18.7588 19.8223 18.6382 19.7701 18.5399C18.7401 16.9399 17.0001 13.7799 17.0001 10.6999C17.0002 9.38815 16.4744 8.13109 15.5403 7.21012C14.6061 6.28916 13.3417 5.78119 12.0301 5.79993C10.7237 5.71627 9.44165 6.18122 8.49259 7.08283C7.54354 7.98443 7.01349 9.24099 7.03009 10.5499C7.03009 14.1399 4.55009 18.1099 4.26009 18.5499C4.20829 18.6397 4.20829 18.7502 4.26009 18.8399C4.31445 18.9382 4.41775 18.9995 4.53009 18.9999H19.4701Z" fill="#FF9500"/>
<path d="M20.5601 17.9999L20.6437 17.9451L20.6435 17.9447L20.5601 17.9999ZM17.9501 10.6999L17.8501 10.6992V10.6999H17.9501ZM20.6101 19.3199L20.5225 19.2716L20.5224 19.2718L20.6101 19.3199ZM19.4701 19.9999V20.0999L19.4707 20.0999L19.4701 19.9999ZM14.9201 19.9999V19.8999H14.8297L14.8206 19.9898L14.9201 19.9999ZM9.07009 19.9999L9.16958 19.9898L9.16047 19.8999H9.07009V19.9999ZM4.49009 19.9999L4.48906 20.0999H4.49009V19.9999ZM3.35576 19.3213L3.26814 19.3695H3.26814L3.35576 19.3213ZM3.39009 17.9999L3.30611 17.9456L3.30509 17.9473L3.39009 17.9999ZM6.00009 10.4999H6.10009L6.10009 10.4997L6.00009 10.4999ZM10.3401 4.99993L10.3631 5.09724L10.5238 5.05919L10.4157 4.93444L10.3401 4.99993ZM14.2201 3.55993L14.1201 3.55959L14.1201 3.56029L14.2201 3.55993ZM13.6701 4.99993L13.5958 4.933L13.4882 5.05243L13.6429 5.09616L13.6701 4.99993ZM12.0001 2.33993L11.9993 2.43993H12.0001L12.0001 2.33993ZM11.1451 2.68785L11.0747 2.61685L11.0747 2.61685L11.1451 2.68785ZM10.7901 3.53993L10.8901 3.54076V3.53993L10.7901 3.53993ZM11.5301 4.66493L11.4912 4.75708V4.75708L11.5301 4.66493ZM10.0701 19.9999V19.8999H9.95139L9.97155 20.0169L10.0701 19.9999ZM12.0001 21.6599L11.998 21.7599H12.0001L12.0001 21.6599ZM13.9201 19.9999L14.019 20.0144L14.0357 19.8999H13.9201V19.9999ZM19.7301 18.8399L19.6572 18.7715L19.6464 18.7829L19.6397 18.7971L19.7301 18.8399ZM19.4701 18.9999L19.4726 18.8999H19.4701V18.9999ZM19.7701 18.5399L19.8587 18.4928L19.8542 18.4858L19.7701 18.5399ZM17.0001 10.6999L16.9001 10.6999V10.6999H17.0001ZM15.5403 7.21012L15.6105 7.13891L15.5403 7.21012ZM12.0301 5.79993L12.0237 5.90003L12.0315 5.89992L12.0301 5.79993ZM7.03009 10.5499H7.1301L7.13009 10.5487L7.03009 10.5499ZM4.26009 18.5499L4.17645 18.4948L4.17349 18.4999L4.26009 18.5499ZM4.26009 18.8399L4.34762 18.7915L4.3467 18.7899L4.26009 18.8399ZM4.53009 18.9999L4.52968 19.0999H4.53009V18.9999ZM20.6435 17.9447C19.6456 16.438 18.0501 13.4889 18.0501 10.6999H17.8501C17.8501 13.5509 19.4746 16.5419 20.4767 18.0551L20.6435 17.9447ZM20.6976 19.3683C20.9447 18.9205 20.924 18.3729 20.6437 17.9451L20.4764 18.0547C20.7161 18.4205 20.7338 18.8888 20.5225 19.2716L20.6976 19.3683ZM19.4707 20.0999C19.9822 20.0966 20.4518 19.8165 20.6978 19.368L20.5224 19.2718C20.3113 19.6567 19.9084 19.8971 19.4694 19.8999L19.4707 20.0999ZM14.9201 20.0999H19.4701V19.8999H14.9201V20.0999ZM11.9951 22.7433C13.5553 22.7433 14.8622 21.5622 15.0196 20.01L14.8206 19.9898C14.6736 21.4399 13.4526 22.5433 11.9951 22.5433V22.7433ZM8.9706 20.01C9.12801 21.5622 10.4349 22.7433 11.9951 22.7433V22.5433C10.5376 22.5433 9.31663 21.4399 9.16958 19.9898L8.9706 20.01ZM4.49009 20.0999H9.07009V19.8999H4.49009V20.0999ZM3.26814 19.3695C3.51344 19.8155 3.98008 20.0947 4.48906 20.0999L4.49113 19.8999C4.05434 19.8954 3.65389 19.6559 3.44338 19.2731L3.26814 19.3695ZM3.30509 17.9473C3.03696 18.3799 3.02284 18.9235 3.26814 19.3695L3.44338 19.2731C3.23288 18.8904 3.245 18.4239 3.4751 18.0526L3.30509 17.9473ZM5.90009 10.4999C5.90009 11.847 5.49493 13.3337 4.96582 14.6745C4.43715 16.0142 3.78775 17.2008 3.30612 17.9456L3.47407 18.0542C3.96244 17.299 4.61804 16.1007 5.15186 14.7479C5.68526 13.3962 6.10009 11.8828 6.10009 10.4999H5.90009ZM10.317 4.90262C7.72384 5.51688 5.89449 7.83519 5.90009 10.5001L6.10009 10.4997C6.09468 7.92762 7.8603 5.69009 10.3631 5.09724L10.317 4.90262ZM10.0681 2.30157C9.51245 3.16423 9.59246 4.29003 10.2645 5.06543L10.4157 4.93444C9.80178 4.22617 9.7287 3.19784 10.2362 2.40987L10.0681 2.30157ZM12.6658 1.33748C11.6819 1.04621 10.6238 1.43892 10.0681 2.30157L10.2362 2.40987C10.7438 1.62191 11.7103 1.26321 12.609 1.52925L12.6658 1.33748ZM14.3201 3.56027C14.3236 2.53415 13.6497 1.62874 12.6658 1.33748L12.609 1.52925C13.5078 1.7953 14.1233 2.62232 14.1201 3.55959L14.3201 3.56027ZM13.7444 5.06686C14.1169 4.65339 14.3221 4.11607 14.3201 3.55957L14.1201 3.56029C14.1219 4.0671 13.935 4.55645 13.5958 4.933L13.7444 5.06686ZM18.0501 10.7006C18.0692 8.00889 16.2876 5.6361 13.6973 4.9037L13.6429 5.09616C16.1465 5.80406 17.8686 8.09749 17.8501 10.6992L18.0501 10.7006ZM12.0001 2.43993C12.4499 2.43995 12.8552 2.71139 13.0264 3.1273L13.2114 3.05115C13.0093 2.56031 12.5309 2.23995 12.0001 2.23993L12.0001 2.43993ZM11.2155 2.75885C11.4238 2.5523 11.7059 2.43748 11.9993 2.43993L12.0009 2.23994C11.6543 2.23705 11.3208 2.37273 11.0747 2.61685L11.2155 2.75885ZM10.8901 3.53993C10.8901 3.2466 11.0072 2.96541 11.2155 2.75885L11.0747 2.61685C10.8285 2.86096 10.6901 3.19327 10.6901 3.53994L10.8901 3.53993ZM11.5689 4.57278C11.1544 4.39808 10.8864 3.99053 10.8901 3.54076L10.6901 3.53911C10.6857 4.06991 11.0021 4.5509 11.4912 4.75708L11.5689 4.57278ZM12.7817 4.33807C12.4623 4.65479 11.9834 4.74748 11.5689 4.57278L11.4912 4.75708C11.9804 4.96326 12.5456 4.85387 12.9225 4.48008L12.7817 4.33807ZM13.0264 3.1273C13.1977 3.54321 13.101 4.02135 12.7817 4.33807L12.9225 4.48008C13.2994 4.10629 13.4135 3.54199 13.2114 3.05115L13.0264 3.1273ZM9.97155 20.0169C10.1424 21.0083 10.9923 21.7393 11.998 21.7599L12.0021 21.56C11.0921 21.5413 10.3232 20.8799 10.1686 19.983L9.97155 20.0169ZM13.9201 19.8999H10.0701V20.0999H13.9201V19.8999ZM12.0001 21.7599C13.0131 21.7601 13.8728 21.0168 14.019 20.0144L13.8211 19.9855C13.6893 20.8897 12.9138 21.5601 12.0001 21.5599L12.0001 21.7599ZM19.6397 18.7971C19.6092 18.8614 19.5437 18.9017 19.4726 18.9L19.4676 19.0999C19.6178 19.1036 19.7561 19.0185 19.8205 18.8828L19.6397 18.7971ZM19.6818 18.5869C19.7139 18.6473 19.7041 18.7216 19.6572 18.7715L19.803 18.9084C19.9085 18.796 19.9307 18.629 19.8584 18.493L19.6818 18.5869ZM16.9001 10.6999C16.9001 13.8109 18.6547 16.9921 19.686 18.5941L19.8542 18.4858C18.8255 16.8878 17.1001 13.7489 17.1001 10.6999H16.9001ZM15.4701 7.28133C16.3851 8.18351 16.9002 9.41491 16.9001 10.6999L17.1001 10.6999C17.1002 9.36139 16.5637 8.07868 15.6105 7.13891L15.4701 7.28133ZM12.0315 5.89992C13.3164 5.88156 14.555 6.37916 15.4701 7.28133L15.6105 7.13891C14.6573 6.19915 13.3671 5.68082 12.0287 5.69994L12.0315 5.89992ZM8.56147 7.15533C9.49033 6.2729 10.7451 5.81785 12.0237 5.89973L12.0365 5.70014C10.7023 5.6147 9.39297 6.08954 8.42372 7.01033L8.56147 7.15533ZM7.13009 10.5487C7.11384 9.26757 7.6326 8.03775 8.56147 7.15533L8.42372 7.01033C7.45447 7.93111 6.91315 9.21441 6.9301 10.5512L7.13009 10.5487ZM4.34359 18.605C4.49087 18.3815 5.18637 17.274 5.84542 15.7713C6.5038 14.2702 7.13009 12.3653 7.13009 10.5499H6.93009C6.93009 12.3246 6.31639 14.1996 5.66227 15.691C5.00882 17.1809 4.31932 18.2784 4.1766 18.4949L4.34359 18.605ZM4.3467 18.7899C4.31276 18.7311 4.31276 18.6587 4.3467 18.5999L4.17349 18.4999C4.10382 18.6206 4.10382 18.7693 4.17349 18.8899L4.3467 18.7899ZM4.53051 18.8999C4.45441 18.8996 4.38443 18.8581 4.34761 18.7915L4.17258 18.8883C4.24447 19.0184 4.38109 19.0993 4.52968 19.0999L4.53051 18.8999ZM19.4701 18.8999H4.53009V19.0999H19.4701V18.8999Z" fill="#FF9500"/>
</svg>
