<svg width="24" height="24" viewBox="0 0 24 24" fill="none" xmlns="http://www.w3.org/2000/svg">
<rect opacity="0.01" width="24" height="24" rx="5" fill="#FF9500"/>
<path d="M14.572 16.2061C14.346 16.2061 14.1628 16.3893 14.1628 16.6153V20.1816H3.81844V3.81844H14.1628V7.52672C14.1628 7.67292 14.2408 7.80801 14.3674 7.88111C14.494 7.95421 14.65 7.95421 14.7766 7.88111C14.9033 7.80801 14.9812 7.67292 14.9812 7.52672V3.40922C14.9812 3.18321 14.798 3 14.572 3H3.40922C3.18321 3 3 3.18321 3 3.40922V20.5908C3 20.8168 3.18321 21 3.40922 21H14.572C14.798 21 14.9812 20.8168 14.9812 20.5908V16.6153C14.9812 16.3893 14.798 16.2061 14.572 16.2061Z" fill="#FF9500"/>
<path d="M20.8186 11.7833L16.6631 7.57303C16.5606 7.46853 16.4102 7.42664 16.2684 7.46315C16.1267 7.49966 16.0152 7.60902 15.9759 7.75003C15.9367 7.89104 15.9756 8.04228 16.0781 8.14678L19.5459 11.6624H7.73344C7.58724 11.6624 7.45214 11.7404 7.37904 11.867C7.30594 11.9936 7.30594 12.1496 7.37904 12.2762C7.45214 12.4028 7.58724 12.4808 7.73344 12.4808H19.5459L16.0781 15.9937C15.9225 16.1549 15.9256 16.4114 16.085 16.5689C16.2444 16.7264 16.5009 16.7264 16.6603 16.5688L20.8158 12.3585C20.974 12.1999 20.9753 11.9435 20.8186 11.7833Z" fill="#FF9500"/>
</svg>
