<svg width="24" height="24" viewBox="0 0 24 24" fill="none" xmlns="http://www.w3.org/2000/svg">
<path fill-rule="evenodd" clip-rule="evenodd" d="M11.73 19.9637C11.8059 20.0208 11.9013 20.0523 12 20.0526C12.0987 20.0523 12.1941 20.0208 12.27 19.9637C12.6218 19.6893 21 13.1204 21 8.28633C20.9955 5.74639 18.722 3.68953 15.9191 3.68953C14.396 3.68688 12.9541 4.31155 12 5.38738C10.6355 3.87466 8.36497 3.30878 6.33876 3.97645C4.31256 4.64413 2.97346 6.39947 2.99999 8.35306C2.99999 13.1278 11.3782 19.6893 11.73 19.9637ZM3.81817 8.35306C3.81817 6.21849 5.72534 4.48694 8.0809 4.48285C9.52489 4.47958 10.8718 5.1415 11.6564 6.24001C11.7385 6.33905 11.8637 6.4012 12 6.41054C12.1332 6.40543 12.2554 6.3418 12.3273 6.24001C13.3364 4.78809 15.283 4.11528 17.1028 4.58939C18.9227 5.06351 20.1777 6.57043 20.1818 8.28633C20.1818 12.3271 13.44 18.0212 12 19.1852C10.56 17.9915 3.81817 12.3345 3.81817 8.35306Z" fill="#FF9500"/>
</svg>
