<svg width="24" height="24" viewBox="0 0 24 24" fill="none" xmlns="http://www.w3.org/2000/svg">
<rect opacity="0.01" width="24" height="24" rx="5" fill="#FF9500"/>
<path fill-rule="evenodd" clip-rule="evenodd" d="M3 12C3 16.9706 7.02944 21 12 21C14.3869 21 16.6761 20.0518 18.364 18.364C20.0518 16.6761 21 14.3869 21 12C21 7.02944 16.9706 3 12 3C7.02944 3 3 7.02944 3 12ZM3.81818 12C3.81818 7.48131 7.48131 3.81818 12 3.81818C14.17 3.81818 16.251 4.68019 17.7854 6.21458C19.3198 7.74897 20.1818 9.83005 20.1818 12C20.1818 16.5187 16.5187 20.1818 12 20.1818C7.48131 20.1818 3.81818 16.5187 3.81818 12Z" fill="#FF9500"/>
<path d="M17.7854 6.21458L17.8561 6.14387L17.7854 6.21458ZM12 20.9C7.08467 20.9 3.1 16.9153 3.1 12H2.9C2.9 17.0258 6.97421 21.1 12 21.1V20.9ZM18.2933 18.2933C16.6242 19.9623 14.3604 20.9 12 20.9V21.1C14.4135 21.1 16.7281 20.1413 18.4347 18.4347L18.2933 18.2933ZM20.9 12C20.9 14.3604 19.9623 16.6242 18.2933 18.2933L18.4347 18.4347C20.1413 16.7281 21.1 14.4135 21.1 12H20.9ZM12 3.1C16.9153 3.1 20.9 7.08467 20.9 12H21.1C21.1 6.97421 17.0258 2.9 12 2.9V3.1ZM3.1 12C3.1 7.08467 7.08467 3.1 12 3.1V2.9C6.97421 2.9 2.9 6.97421 2.9 12H3.1ZM12 3.71818C7.42608 3.71818 3.71818 7.42608 3.71818 12H3.91818C3.91818 7.53654 7.53654 3.91818 12 3.91818V3.71818ZM17.8561 6.14387C16.303 4.59073 14.1965 3.71818 12 3.71818V3.91818C14.1434 3.91818 16.1991 4.76966 17.7147 6.28529L17.8561 6.14387ZM20.2818 12C20.2818 9.80352 19.4093 7.69701 17.8561 6.14387L17.7147 6.28529C19.2303 7.80093 20.0818 9.85657 20.0818 12H20.2818ZM12 20.2818C16.5739 20.2818 20.2818 16.5739 20.2818 12H20.0818C20.0818 16.4635 16.4635 20.0818 12 20.0818V20.2818ZM3.71818 12C3.71818 16.5739 7.42608 20.2818 12 20.2818V20.0818C7.53654 20.0818 3.91818 16.4635 3.91818 12H3.71818Z" fill="#FF9500"/>
<path d="M15.2726 12.4091H11.9999C11.774 12.4091 11.5908 12.2259 11.5908 12V7.33634C11.5908 7.1104 11.774 6.92725 11.9999 6.92725C12.2258 6.92725 12.409 7.1104 12.409 7.33634V11.5909H15.2726C15.4986 11.5909 15.6817 11.774 15.6817 12C15.6817 12.2259 15.4986 12.4091 15.2726 12.4091Z" fill="#FF9500" stroke="#FF9500" stroke-width="0.2"/>
</svg>
