<svg width="24" height="24" viewBox="0 0 24 24" fill="none" xmlns="http://www.w3.org/2000/svg">
<rect opacity="0.01" width="24" height="24" rx="5" fill="#FF9500"/>
<path fill-rule="evenodd" clip-rule="evenodd" d="M3.61353 21.4092C3.61353 21.6351 3.79668 21.8183 4.02262 21.8183H19.9772C20.2031 21.8183 20.3863 21.6351 20.3863 21.4092C20.3863 17.1219 16.6226 13.6365 11.9999 13.6365C7.37716 13.6365 3.61353 17.1219 3.61353 21.4092ZM11.9999 14.4547C16.0253 14.4547 19.3635 17.351 19.5517 21.0001H4.44807C4.67716 17.351 7.97443 14.4547 11.9999 14.4547Z" fill="#FF9500"/>
<path d="M19.5517 21.0001V21.1501H19.7096L19.7015 20.9924L19.5517 21.0001ZM4.44807 21.0001L4.29837 20.9907L4.28836 21.1501H4.44807V21.0001ZM4.02262 21.6683C3.87952 21.6683 3.76353 21.5523 3.76353 21.4092H3.46353C3.46353 21.718 3.71384 21.9683 4.02262 21.9683V21.6683ZM19.9772 21.6683H4.02262V21.9683H19.9772V21.6683ZM20.2363 21.4092C20.2363 21.5523 20.1203 21.6683 19.9772 21.6683V21.9683C20.2859 21.9683 20.5363 21.718 20.5363 21.4092H20.2363ZM11.9999 13.7865C16.5507 13.7865 20.2363 17.2153 20.2363 21.4092H20.5363C20.5363 17.0285 16.6945 13.4865 11.9999 13.4865V13.7865ZM3.76353 21.4092C3.76353 17.2153 7.44903 13.7865 11.9999 13.7865V13.4865C7.30529 13.4865 3.46353 17.0285 3.46353 21.4092H3.76353ZM19.7015 20.9924C19.5086 17.2514 16.0924 14.3047 11.9999 14.3047V14.6047C15.9583 14.6047 19.2185 17.4507 19.4019 21.0078L19.7015 20.9924ZM4.44807 21.1501H19.5517V20.8501H4.44807V21.1501ZM11.9999 14.3047C7.90585 14.3047 4.53306 17.2524 4.29837 20.9907L4.59778 21.0095C4.82127 17.4496 8.04302 14.6047 11.9999 14.6047V14.3047Z" fill="#FF9500"/>
<path fill-rule="evenodd" clip-rule="evenodd" d="M7.90918 7.83554C7.90918 10.0949 9.74074 11.9264 12.0001 11.9264C13.0851 11.9264 14.1256 11.4954 14.8928 10.7282C15.66 9.96105 16.091 8.92051 16.091 7.83554C16.091 5.57619 14.2594 3.74463 12.0001 3.74463C9.74074 3.74463 7.90918 5.57619 7.90918 7.83554ZM8.72736 7.90917C8.72736 6.1017 10.1926 4.63645 12.0001 4.63645C12.8681 4.63645 13.7005 4.98125 14.3143 5.59501C14.928 6.20876 15.2728 7.04119 15.2728 7.90917C15.2728 9.71665 13.8076 11.1819 12.0001 11.1819C10.1926 11.1819 8.72736 9.71665 8.72736 7.90917Z" fill="#FF9500"/>
<path d="M14.3143 5.59501L14.4203 5.48894L14.3143 5.59501ZM12.0001 11.7764C9.82358 11.7764 8.05918 10.012 8.05918 7.83554H7.75918C7.75918 10.1777 9.6579 12.0764 12.0001 12.0764V11.7764ZM14.7867 10.6222C14.0477 11.3612 13.0453 11.7764 12.0001 11.7764V12.0764C13.1248 12.0764 14.2035 11.6296 14.9989 10.8343L14.7867 10.6222ZM15.941 7.83554C15.941 8.88073 15.5258 9.88312 14.7867 10.6222L14.9989 10.8343C15.7942 10.039 16.241 8.9603 16.241 7.83554H15.941ZM12.0001 3.89463C14.1766 3.89463 15.941 5.65903 15.941 7.83554H16.241C16.241 5.49335 14.3423 3.59463 12.0001 3.59463V3.89463ZM8.05918 7.83554C8.05918 5.65903 9.82358 3.89463 12.0001 3.89463V3.59463C9.6579 3.59463 7.75918 5.49335 7.75918 7.83554H8.05918ZM12.0001 4.48645C10.1098 4.48645 8.57736 6.01885 8.57736 7.90917H8.87736C8.87736 6.18454 10.2755 4.78645 12.0001 4.78645V4.48645ZM14.4203 5.48894C13.7784 4.84705 12.9079 4.48645 12.0001 4.48645V4.78645C12.8283 4.78645 13.6226 5.11545 14.2082 5.70107L14.4203 5.48894ZM15.4228 7.90917C15.4228 7.00141 15.0622 6.13083 14.4203 5.48894L14.2082 5.70107C14.7938 6.2867 15.1228 7.08098 15.1228 7.90917H15.4228ZM12.0001 11.3319C13.8904 11.3319 15.4228 9.79949 15.4228 7.90917H15.1228C15.1228 9.63381 13.7247 11.0319 12.0001 11.0319V11.3319ZM8.57736 7.90917C8.57736 9.79949 10.1098 11.3319 12.0001 11.3319V11.0319C10.2755 11.0319 8.87736 9.63381 8.87736 7.90917H8.57736Z" fill="#FF9500"/>
</svg>
