<svg width="20" height="18" viewBox="0 0 20 18" fill="none" xmlns="http://www.w3.org/2000/svg">
<path fill-rule="evenodd" clip-rule="evenodd" d="M5.95 2C3.75673 2 2 3.75279 2 5.88889C2 6.92933 2.41383 7.87442 3.09348 8.5748L9.99987 15.5759L16.7811 8.69919C16.7879 8.69224 16.7949 8.68539 16.8019 8.67865C17.5436 7.96933 18 6.98135 18 5.88889C18 3.75279 16.2433 2 14.05 2C13.5739 2 13.0164 2.26668 12.3962 2.81606C11.7916 3.35152 11.2503 4.04624 10.8142 4.65781C10.6266 4.92101 10.3233 5.07726 10 5.07726C9.67675 5.07726 9.37344 4.92101 9.18577 4.65781C8.74972 4.04624 8.20837 3.35152 7.60383 2.81606C6.98357 2.26668 6.42611 2 5.95 2ZM0 5.88889C0 2.62487 2.67565 0 5.95 0C7.14803 0 8.16766 0.643746 8.92991 1.31889C9.32242 1.66655 9.68149 2.05364 10 2.43468C10.3185 2.05364 10.6776 1.66655 11.0701 1.31889C11.8323 0.643746 12.852 0 14.05 0C17.3243 0 20 2.62487 20 5.88889C20 7.54789 19.3057 9.04594 18.1953 10.1134L10.712 17.7021C10.5241 17.8927 10.2677 18 10.0001 18C9.73248 18 9.47603 17.8928 9.28809 17.7023L1.66177 9.97135C0.63491 8.915 0 7.47522 0 5.88889Z" fill="#FF9500"/>
</svg>
